<svg id="visual" viewBox="0 0 900 600" width="900" height="600" xmlns="http://www.w3.org/2000/svg" xmlns:xlink="http://www.w3.org/1999/xlink" version="1.1"><path d="M0 31L150 109L300 37L450 103L600 85L750 37L900 85L900 0L750 0L600 0L450 0L300 0L150 0L0 0Z" fill="#4aa8de"></path><path d="M0 151L150 223L300 175L450 139L600 127L750 217L900 229L900 83L750 35L600 83L450 101L300 35L150 107L0 29Z" fill="#2783a0"></path><path d="M0 241L150 343L300 283L450 247L600 247L750 259L900 343L900 227L750 215L600 125L450 137L300 173L150 221L0 149Z" fill="#1f5d68"></path><path d="M0 355L150 499L300 397L450 433L600 427L750 397L900 463L900 341L750 257L600 245L450 245L300 281L150 341L0 239Z" fill="#1c3839"></path><path d="M0 601L150 601L300 601L450 601L600 601L750 601L900 601L900 461L750 395L600 425L450 431L300 395L150 497L0 353Z" fill="#111615"></path></svg>