<svg id="visual" viewBox="0 0 900 600" width="900" height="600" xmlns="http://www.w3.org/2000/svg" xmlns:xlink="http://www.w3.org/1999/xlink" version="1.1"><path d="M0 187L82 187L82 163L164 163L164 163L245 163L245 103L327 103L327 91L409 91L409 151L491 151L491 175L573 175L573 145L655 145L655 115L736 115L736 163L818 163L818 145L900 145L900 181L900 0L900 0L818 0L818 0L736 0L736 0L655 0L655 0L573 0L573 0L491 0L491 0L409 0L409 0L327 0L327 0L245 0L245 0L164 0L164 0L82 0L82 0L0 0Z" fill="#db948f"></path><path d="M0 331L82 331L82 319L164 319L164 247L245 247L245 205L327 205L327 259L409 259L409 217L491 217L491 331L573 331L573 241L655 241L655 199L736 199L736 259L818 259L818 259L900 259L900 343L900 179L900 143L818 143L818 161L736 161L736 113L655 113L655 143L573 143L573 173L491 173L491 149L409 149L409 89L327 89L327 101L245 101L245 161L164 161L164 161L82 161L82 185L0 185Z" fill="#cc797c"></path><path d="M0 481L82 481L82 433L164 433L164 445L245 445L245 469L327 469L327 493L409 493L409 403L491 403L491 511L573 511L573 421L655 421L655 451L736 451L736 493L818 493L818 403L900 403L900 481L900 341L900 257L818 257L818 257L736 257L736 197L655 197L655 239L573 239L573 329L491 329L491 215L409 215L409 257L327 257L327 203L245 203L245 245L164 245L164 317L82 317L82 329L0 329Z" fill="#bc5d6c"></path><path d="M0 541L82 541L82 559L164 559L164 517L245 517L245 553L327 553L327 547L409 547L409 523L491 523L491 553L573 553L573 505L655 505L655 559L736 559L736 541L818 541L818 529L900 529L900 547L900 479L900 401L818 401L818 491L736 491L736 449L655 449L655 419L573 419L573 509L491 509L491 401L409 401L409 491L327 491L327 467L245 467L245 443L164 443L164 431L82 431L82 479L0 479Z" fill="#aa415f"></path><path d="M0 601L82 601L82 601L164 601L164 601L245 601L245 601L327 601L327 601L409 601L409 601L491 601L491 601L573 601L573 601L655 601L655 601L736 601L736 601L818 601L818 601L900 601L900 601L900 545L900 527L818 527L818 539L736 539L736 557L655 557L655 503L573 503L573 551L491 551L491 521L409 521L409 545L327 545L327 551L245 551L245 515L164 515L164 557L82 557L82 539L0 539Z" fill="#972154"></path></svg>